<?xml version="1.0" encoding="utf-8"?>
<!-- Generator: Adobe Illustrator 26.0.3, SVG Export Plug-In . SVG Version: 6.00 Build 0)  -->
<svg version="1.1" id="Layer_1" xmlns="http://www.w3.org/2000/svg" xmlns:xlink="http://www.w3.org/1999/xlink" x="0px" y="0px"
	 viewBox="0 0 1080 1080" style="enable-background:new 0 0 1080 1080;" xml:space="preserve">
<style type="text/css">
	.st0{fill:#FFFFFF;}
</style>
<g>
	<path class="st0" d="M12.1,1059.19c7.59-18.64,15.38-37.2,22.73-55.93c16.14-41.16,32.06-82.41,48.75-125.4
		c40.78,38.04,77.94,78.06,114.65,120.65c-6.45,2.33-11.98,4.42-17.57,6.32c-53.2,18.11-106.41,36.2-159.64,54.24
		c-2.89,0.98-5.95,1.47-8.93,2.18C12.1,1060.56,12.1,1059.87,12.1,1059.19z"/>
	<path class="st0" d="M273.92,387.22c10.63-27.35,21.02-54.1,31.55-81.2c187.64,137.11,345.78,301.16,473.61,494.47
		c-1.1,0.79-1.84,1.62-2.76,1.94c-26.91,9.21-53.84,18.37-81.9,27.92C581.88,656.66,441.78,508.94,273.92,387.22z"/>
	<path class="st0" d="M250.97,446.41c151.85,112.47,278.96,246.4,383.43,404.13c-9.16,3.15-17.41,6.01-25.68,8.84
		c-17.52,5.99-35.19,11.57-52.49,18.14c-7.19,2.73-10.76,1.09-15.02-4.98c-48.03-68.48-101.22-132.74-159.24-192.98
		c-48.92-50.8-100.75-98.45-156.01-142.28c-6.18-4.9-7.3-8.66-4.22-16.07C231.84,496.92,240.97,472.23,250.97,446.41z"/>
	<path class="st0" d="M644.7,454.39c-13.32-12.48-27.59-25.84-42.36-39.66c14.76-15.43,32.13-23.34,52.08-25.93
		c7.83-1.02,15.74-1.4,23.61-2.05c16.1-1.34,27.32-11.99,29.38-27.97c1.14-8.85,1.75-17.8,3.42-26.54
		c8.17-42.63,42.85-72.88,86.09-75.45c4.8-0.28,9.63-0.34,14.4-0.89c19.07-2.22,28.85-11.84,31.36-30.83
		c1.22-9.19,1.47-18.56,3.43-27.58c8.24-38.04,41.06-66.94,80.05-71.02c6.49-0.68,12.99-1.25,19.5-1.69
		c18.81-1.26,30.24-12.38,31.68-31.42c1.59-21.11,4.67-41.72,17.86-59.26c3.26-4.33,6.98-8.32,9.25-10.99
		c15.04,13.89,29.56,27.3,41.87,38.67c-2.79,12.4-6.19,22.41-7.16,32.65c-5.27,55.69-40.28,89.43-96.07,92.19
		c-7.07,0.35-14.69,1.11-20.92,4.06c-10.92,5.17-16.69,14.7-17.26,27.23c-1.37,30.27-9.96,57.32-34.39,77.52
		c-15.36,12.7-32.73,19.83-52.53,21.24c-3.43,0.24-6.85,0.73-10.28,0.78c-27.17,0.33-36.97,14.73-38.62,39.34
		c-3.7,54.96-39.58,89.11-94.66,91.94C664.51,449.24,654.74,452.41,644.7,454.39z"/>
	<path class="st0" d="M194.96,590.76C306.23,681.34,402.65,784,486.38,900.9c-18.89,6.42-36.28,12.41-53.73,18.24
		c-10.38,3.47-22.38,11.48-30.86,8.76c-9.04-2.9-14.99-15.89-21.94-24.75c-62.76-80-132.16-153.73-208.69-220.67
		c-6.7-5.86-8.42-10.22-4.76-18.81C176.42,640.1,185.18,616,194.96,590.76z"/>
	<path class="st0" d="M138.85,735.4c73.86,65.93,139.84,137.03,200.49,215.42c-20.42,6.95-39.7,13.56-59,20.08
		c-19.54,6.6-18.89,5.95-32.74-8.77c-44.02-46.79-88.46-93.2-133.08-139.42c-5.04-5.22-6.38-9.06-3.58-15.9
		C120.44,783.65,129.23,760.19,138.85,735.4z"/>
	<path class="st0" d="M535.71,18.75c14.6,7.06,32.15,15.54,50.44,24.38c-8,18.48-20.74,31.85-37.31,41.65
		c-7.36,4.35-15.31,7.7-22.99,11.52c-18.46,9.18-26.3,24.94-21.27,45.04c6.38,25.49,9.09,50.55-1.95,75.63
		c-10.92,24.81-28.99,41.83-53.31,53.36c-10.79,5.11-20.42,12.66-32.76,20.48c-14.69-7.11-32.47-15.71-50.73-24.55
		c8.14-18.01,20.13-31.29,36.25-40.71c8.27-4.83,17.1-8.72,25.61-13.15c16.77-8.72,23.54-24.21,20.35-42.9
		c-2.75-16.14-7.05-32.8-5.47-48.72c3.73-37.62,24.34-64.52,58.9-80.89C512.57,34.62,522.56,26.96,535.71,18.75z"/>
	<path class="st0" d="M797.55,685.82c-6.69-14.91-14.67-32.67-22.97-51.15c19.53-9.81,39.18-10.63,59.38-5.5
		c7.31,1.86,14.46,4.35,21.77,6.18c13.66,3.43,26.32-2.16,33.07-14.6c2.94-5.42,5.33-11.14,8.04-16.68
		c21.21-43.27,63.6-62.06,110.02-49.3c11.62,3.19,23.66,4.85,38.04,7.72c6.58,14.59,14.59,32.37,23,51.01
		c-16.38,8.7-33.44,10.27-50.92,7.29c-10.1-1.73-19.9-5.14-29.87-7.65c-14.06-3.55-27.03,2.1-33.81,14.84
		c-2.58,4.84-4.62,9.96-6.99,14.91c-21.41,44.67-64.36,63.68-112.2,50.19C823.18,689.99,811.77,688.59,797.55,685.82z"/>
	<path class="st0" d="M833.96,478.21c0-19.87,0-39.25,0-59.35c20.19,0,39.89,0,60.25,0c0,19.66,0,39.07,0,59.35
		C874.67,478.21,854.97,478.21,833.96,478.21z"/>
	<path class="st0" d="M742.68,20.56c20.02,0,39.42,0,59.5,0c0,20.29,0,40,0,60.27c-19.82,0-39.25,0-59.5,0
		C742.68,61.11,742.68,41.4,742.68,20.56z"/>
	<path class="st0" d="M649.34,163.74c0,20.33,0,39.51,0,59.56c-19.85,0-39.55,0-60.01,0c0-19.65,0-39.35,0-59.56
		C609.39,163.74,628.86,163.74,649.34,163.74z"/>
	<path class="st0" d="M925.01,787.84c0,19.63,0,38.67,0,58.41c-19.99,0-39.72,0-60.18,0c0-19.27,0-38.57,0-58.41
		C885,787.84,904.71,787.84,925.01,787.84z"/>
	<path class="st0" d="M373.44,79.14c-19.81,0-39.29,0-59.56,0c0-19.33,0-38.65,0-58.57c19.74,0,39.19,0,59.56,0
		C373.44,39.96,373.44,59.28,373.44,79.14z"/>
	<path class="st0" d="M987.2,386.3c0-19.88,0-39.04,0-58.95c19.96,0,39.67,0,59.99,0c0,19.6,0,38.98,0,58.95
		C1027.37,386.3,1007.94,386.3,987.2,386.3z"/>
	<path class="st0" d="M987.13,752.91c0-19.61,0-38.46,0-58.11c19.92,0,39.62,0,60,0c0,19.07,0,38.16,0,58.11
		C1027.63,752.91,1007.96,752.91,987.13,752.91z"/>
	<path class="st0" d="M252.2,232.3c0-19.68,0-38.71,0-58.29c20.34,0,40.06,0,60.3,0c0,19.66,0,38.7,0,58.29
		C292.2,232.3,272.48,232.3,252.2,232.3z"/>
</g>
</svg>
